<svg width="400" height="400" viewBox="0 0 400 400" fill="none" xmlns="http://www.w3.org/2000/svg">
  <!-- Main Water Drop -->
  <g id="mainDrop">
    <path d="M200 50 C150 100, 120 160, 120 220 C120 280, 155 320, 200 320 C245 320, 280 280, 280 220 C280 160, 250 100, 200 50 Z" 
          fill="url(#mainDropGradient)" 
          stroke="url(#dropStroke)" 
          stroke-width="3"/>
    
    <!-- Water Highlight -->
    <ellipse cx="180" cy="140" rx="25" ry="40" fill="url(#highlightGradient)" opacity="0.7"/>
    
    <!-- Small Bubble Highlights -->
    <circle cx="170" cy="120" r="8" fill="url(#bubbleGradient)" opacity="0.8"/>
    <circle cx="210" cy="160" r="5" fill="url(#bubbleGradient)" opacity="0.6"/>
    <circle cx="190" cy="180" r="3" fill="url(#bubbleGradient)" opacity="0.9"/>
  </g>
  
  <!-- Surrounding Water Molecules -->
  <g id="molecules">
    <!-- Left molecule -->
    <g transform="translate(80, 180)">
      <circle cx="0" cy="0" r="8" fill="url(#moleculeGradient)"/>
      <circle cx="-15" cy="-10" r="5" fill="url(#moleculeGradient)"/>
      <circle cx="15" cy="-10" r="5" fill="url(#moleculeGradient)"/>
      <line x1="0" y1="0" x2="-15" y2="-10" stroke="#5b289e" stroke-width="2"/>
      <line x1="0" y1="0" x2="15" y2="-10" stroke="#5b289e" stroke-width="2"/>
    </g>
    
    <!-- Right molecule -->
    <g transform="translate(320, 180)">
      <circle cx="0" cy="0" r="8" fill="url(#moleculeGradient)"/>
      <circle cx="-15" cy="-10" r="5" fill="url(#moleculeGradient)"/>
      <circle cx="15" cy="-10" r="5" fill="url(#moleculeGradient)"/>
      <line x1="0" y1="0" x2="-15" y2="-10" stroke="#5b289e" stroke-width="2"/>
      <line x1="0" y1="0" x2="15" y2="-10" stroke="#5b289e" stroke-width="2"/>
    </g>
    
    <!-- Top molecule -->
    <g transform="translate(200, 100)">
      <circle cx="0" cy="0" r="6" fill="url(#moleculeGradient)"/>
      <circle cx="-12" cy="-8" r="4" fill="url(#moleculeGradient)"/>
      <circle cx="12" cy="-8" r="4" fill="url(#moleculeGradient)"/>
      <line x1="0" y1="0" x2="-12" y2="-8" stroke="#5b289e" stroke-width="1.5"/>
      <line x1="0" y1="0" x2="12" y2="-8" stroke="#5b289e" stroke-width="1.5"/>
    </g>
  </g>
  
  <!-- Floating Water Droplets -->
  <g id="floatingDrops">
    <!-- Small drop 1 -->
    <path d="M90 120 C85 125, 85 130, 90 132 C95 130, 95 125, 90 120 Z" 
          fill="url(#smallDropGradient)" opacity="0.8"/>
    
    <!-- Small drop 2 -->
    <path d="M310 140 C305 145, 305 150, 310 152 C315 150, 315 145, 310 140 Z" 
          fill="url(#smallDropGradient)" opacity="0.7"/>
    
    <!-- Small drop 3 -->
    <path d="M150 80 C147 83, 147 86, 150 87 C153 86, 153 83, 150 80 Z" 
          fill="url(#smallDropGradient)" opacity="0.6"/>
    
    <!-- Small drop 4 -->
    <path d="M250 90 C247 93, 247 96, 250 97 C253 96, 253 93, 250 90 Z" 
          fill="url(#smallDropGradient)" opacity="0.8"/>
  </g>
  
  <!-- Ripple Effects -->
  <g id="ripples">
    <circle cx="200" cy="340" r="40" fill="none" stroke="url(#rippleGradient)" stroke-width="2" opacity="0.6"/>
    <circle cx="200" cy="340" r="60" fill="none" stroke="url(#rippleGradient)" stroke-width="1.5" opacity="0.4"/>
    <circle cx="200" cy="340" r="80" fill="none" stroke="url(#rippleGradient)" stroke-width="1" opacity="0.2"/>
  </g>
  
  <!-- Water Flow Lines -->
  <g id="flowLines">
    <path d="M50 250 Q100 240 150 250 T250 250 T350 250" 
          stroke="url(#flowGradient)" stroke-width="3" fill="none" opacity="0.5"/>
    <path d="M60 270 Q110 260 160 270 T260 270 T340 270" 
          stroke="url(#flowGradient)" stroke-width="2" fill="none" opacity="0.4"/>
    <path d="M70 290 Q120 280 170 290 T270 290 T330 290" 
          stroke="url(#flowGradient)" stroke-width="1.5" fill="none" opacity="0.3"/>
  </g>
  
  <!-- Environmental Elements -->
  <g id="environmental">
    <!-- Leaves -->
    <path d="M60 200 Q50 190 60 180 Q70 185 75 195 Q70 205 60 200" 
          fill="url(#leafGradient)" opacity="0.7"/>
    <path d="M340 220 Q350 210 340 200 Q330 205 325 215 Q330 225 340 220" 
          fill="url(#leafGradient)" opacity="0.7"/>
    
    <!-- Recycling Symbol -->
    <g transform="translate(200, 360) scale(0.8)">
      <path d="M-15 -10 L0 -20 L15 -10 L10 -5 L-10 -5 Z" fill="#8f73b2"/>
      <path d="M15 -10 L25 5 L10 15 L5 10 L5 -5 Z" fill="#8f73b2"/>
      <path d="M10 15 L-5 25 L-20 10 L-15 5 L-5 5 Z" fill="#8f73b2"/>
    </g>
  </g>
  
  <!-- Female Science Symbols -->
  <g id="femaleScience">
    <!-- Test tube with female symbol -->
    <g transform="translate(120, 300)">
      <rect x="-3" y="-20" width="6" height="30" rx="3" fill="url(#tubeGradient)"/>
      <circle cx="0" cy="-25" r="5" fill="url(#liquidGradient)"/>
      <circle cx="0" cy="15" r="3" fill="#dedae07"/>
      <line x1="0" y1="18" x2="0" y2="25" stroke="#5b289e" stroke-width="1"/>
      <line x1="-3" y1="22" x2="3" y2="22" stroke="#5b289e" stroke-width="1"/>
    </g>
    
    <!-- Microscope with female symbol -->
    <g transform="translate(280, 300)">
      <rect x="-2" y="-15" width="4" height="20" fill="#8f73b2"/>
      <circle cx="0" cy="-18" r="4" fill="#dedae07"/>
      <circle cx="0" cy="8" r="3" fill="#dedae07"/>
      <line x1="0" y1="11" x2="0" y2="18" stroke="#5b289e" stroke-width="1"/>
      <line x1="-3" y1="15" x2="3" y2="15" stroke="#5b289e" stroke-width="1"/>
    </g>
  </g>
  
  <!-- Gradients and Effects -->
  <defs>
    <!-- Main Drop Gradient -->
    <radialGradient id="mainDropGradient" cx="0.3" cy="0.3" r="0.8">
      <stop offset="0%" style="stop-color:#E6F3FF;stop-opacity:1"/>
      <stop offset="30%" style="stop-color:#87CEEB;stop-opacity:1"/>
      <stop offset="70%" style="stop-color:#4682B4;stop-opacity:1"/>
      <stop offset="100%" style="stop-color:#5b289e;stop-opacity:1"/>
    </radialGradient>
    
    <!-- Drop Stroke Gradient -->
    <linearGradient id="dropStroke" x1="0%" y1="0%" x2="100%" y2="100%">
      <stop offset="0%" style="stop-color:#5b289e;stop-opacity:1"/>
      <stop offset="100%" style="stop-color:#8f73b2;stop-opacity:1"/>
    </linearGradient>
    
    <!-- Highlight Gradient -->
    <radialGradient id="highlightGradient" cx="0.5" cy="0.5" r="0.8">
      <stop offset="0%" style="stop-color:#FFFFFF;stop-opacity:0.9"/>
      <stop offset="70%" style="stop-color:#E6F3FF;stop-opacity:0.5"/>
      <stop offset="100%" style="stop-color:#87CEEB;stop-opacity:0.2"/>
    </radialGradient>
    
    <!-- Bubble Gradient -->
    <radialGradient id="bubbleGradient" cx="0.3" cy="0.3" r="0.7">
      <stop offset="0%" style="stop-color:#FFFFFF;stop-opacity:1"/>
      <stop offset="100%" style="stop-color:#E6F3FF;stop-opacity:0.6"/>
    </radialGradient>
    
    <!-- Molecule Gradient -->
    <radialGradient id="moleculeGradient" cx="0.3" cy="0.3" r="0.7">
      <stop offset="0%" style="stop-color:#dedae07;stop-opacity:1"/>
      <stop offset="100%" style="stop-color:#8f73b2;stop-opacity:1"/>
    </radialGradient>
    
    <!-- Small Drop Gradient -->
    <radialGradient id="smallDropGradient" cx="0.3" cy="0.3" r="0.8">
      <stop offset="0%" style="stop-color:#B0E0E6;stop-opacity:1"/>
      <stop offset="100%" style="stop-color:#5b289e;stop-opacity:0.8"/>
    </radialGradient>
    
    <!-- Ripple Gradient -->
    <linearGradient id="rippleGradient" x1="0%" y1="0%" x2="100%" y2="0%">
      <stop offset="0%" style="stop-color:#87CEEB;stop-opacity:0.8"/>
      <stop offset="50%" style="stop-color:#5b289e;stop-opacity:0.6"/>
      <stop offset="100%" style="stop-color:#8f73b2;stop-opacity:0.4"/>
    </linearGradient>
    
    <!-- Flow Gradient -->
    <linearGradient id="flowGradient" x1="0%" y1="0%" x2="100%" y2="0%">
      <stop offset="0%" style="stop-color:#4682B4;stop-opacity:0.6"/>
      <stop offset="50%" style="stop-color:#87CEEB;stop-opacity:0.8"/>
      <stop offset="100%" style="stop-color:#4682B4;stop-opacity:0.6"/>
    </linearGradient>
    
    <!-- Leaf Gradient -->
    <linearGradient id="leafGradient" x1="0%" y1="0%" x2="100%" y2="100%">
      <stop offset="0%" style="stop-color:#90EE90;stop-opacity:1"/>
      <stop offset="100%" style="stop-color:#228B22;stop-opacity:1"/>
    </linearGradient>
    
    <!-- Tube Gradient -->
    <linearGradient id="tubeGradient" x1="0%" y1="0%" x2="100%" y2="100%">
      <stop offset="0%" style="stop-color:#E0E0E0;stop-opacity:1"/>
      <stop offset="100%" style="stop-color:#8f73b2;stop-opacity:0.8"/>
    </linearGradient>
    
    <!-- Liquid Gradient -->
    <radialGradient id="liquidGradient" cx="0.3" cy="0.3" r="0.7">
      <stop offset="0%" style="stop-color:#87CEEB;stop-opacity:1"/>
      <stop offset="100%" style="stop-color:#5b289e;stop-opacity:1"/>
    </radialGradient>
    
    <!-- Filters -->
    <filter id="glow" x="-50%" y="-50%" width="200%" height="200%">
      <feGaussianBlur stdDeviation="3" result="coloredBlur"/>
      <feMerge> 
        <feMergeNode in="coloredBlur"/>
        <feMergeNode in="SourceGraphic"/>
      </feMerge>
    </filter>
    
    <filter id="shadow" x="-50%" y="-50%" width="200%" height="200%">
      <feDropShadow dx="3" dy="3" stdDeviation="4" flood-color="#5b289e" flood-opacity="0.3"/>
    </filter>
  </defs>
  
  <!-- Animations -->
  <style>
    #mainDrop {
      filter: url(#shadow);
      transform-origin: center;
      animation: dropFloat 4s ease-in-out infinite;
    }
    
    #floatingDrops path:nth-child(1) {
      animation: float1 3s ease-in-out infinite;
    }
    
    #floatingDrops path:nth-child(2) {
      animation: float2 3.5s ease-in-out infinite 0.5s;
    }
    
    #floatingDrops path:nth-child(3) {
      animation: float3 2.8s ease-in-out infinite 1s;
    }
    
    #floatingDrops path:nth-child(4) {
      animation: float4 3.2s ease-in-out infinite 1.5s;
    }
    
    #ripples circle:nth-child(1) {
      animation: ripple1 2s ease-out infinite;
    }
    
    #ripples circle:nth-child(2) {
      animation: ripple2 2s ease-out infinite 0.3s;
    }
    
    #ripples circle:nth-child(3) {
      animation: ripple3 2s ease-out infinite 0.6s;
    }
    
    #molecules {
      animation: moleculeRotate 8s linear infinite;
    }
    
    @keyframes dropFloat {
      0%, 100% { transform: translateY(0px) scale(1); }
      50% { transform: translateY(-10px) scale(1.02); }
    }
    
    @keyframes float1 {
      0%, 100% { transform: translateY(0px) translateX(0px); }
      50% { transform: translateY(-8px) translateX(5px); }
    }
    
    @keyframes float2 {
      0%, 100% { transform: translateY(0px) translateX(0px); }
      50% { transform: translateY(-6px) translateX(-3px); }
    }
    
    @keyframes float3 {
      0%, 100% { transform: translateY(0px) translateX(0px); }
      50% { transform: translateY(-4px) translateX(4px); }
    }
    
    @keyframes float4 {
      0%, 100% { transform: translateY(0px) translateX(0px); }
      50% { transform: translateY(-7px) translateX(-2px); }
    }
    
    @keyframes ripple1 {
      0% { r: 30; opacity: 0.8; }
      100% { r: 50; opacity: 0; }
    }
    
    @keyframes ripple2 {
      0% { r: 40; opacity: 0.6; }
      100% { r: 70; opacity: 0; }
    }
    
    @keyframes ripple3 {
      0% { r: 50; opacity: 0.4; }
      100% { r: 90; opacity: 0; }
    }
    
    @keyframes moleculeRotate {
      0% { transform: rotate(0deg); }
      100% { transform: rotate(360deg); }
    }
    
    /* Reduced motion for accessibility */
    @media (prefers-reduced-motion: reduce) {
      * {
        animation-duration: 0.01ms !important;
        animation-iteration-count: 1 !important;
      }
    }
  </style>
</svg>
